<?xml version="1.0" encoding="UTF-8"?>
<svg width="48px" height="48px" viewBox="0 0 48 48" version="1.1" xmlns="http://www.w3.org/2000/svg" xmlns:xlink="http://www.w3.org/1999/xlink">
    <!-- Generator: Sketch 47.1 (45422) - http://www.bohemiancoding.com/sketch -->
    <title>Icon/Favorite</title>
    <desc>Created with Sketch.</desc>
    <defs></defs>
    <g id="Symbols" stroke="none" stroke-width="1" fill="none" fill-rule="evenodd">
        <g id="Icon/Favorite" fill="#FFFFFF">
            <path d="M23.0468463,33.265622 L15.3593646,25.718765 C14.7343663,25.1250162 14.1562422,24.4218928 13.6249937,23.609395 C12.6249964,22.1093986 12.1249973,20.6406523 12.1249973,19.2031555 C12.1249973,17.0469107 12.7578083,15.3281645 14.0234303,14.0469178 C15.2890523,12.7656711 17.0312359,12.1250474 19.2499803,12.1250474 C20.9374763,12.1250474 22.6874719,12.9062958 24.4999678,14.4687918 C26.3124637,12.9062958 28.0624593,12.1250474 29.7499553,12.1250474 C31.9062002,12.1250474 33.6327583,12.7578584 34.9296304,14.0234804 C36.2265026,15.2891023 36.8749383,17.0156605 36.8749383,19.2031555 C36.8749383,20.359403 36.5624388,21.5312752 35.9374405,22.7187721 C35.3749419,23.8125193 34.6249437,24.7968919 33.6874459,25.6718901 L25.9530893,33.265622 C25.5468401,33.6718713 25.0624665,33.8749955 24.4999678,33.8749955 C23.9374692,33.8749955 23.4530955,33.6718713 23.0468463,33.265622 Z M16.9062359,24.0781439 L24.4999678,31.5312511 L32.0936997,24.1250188 C32.8124478,23.4062707 33.3905719,22.6562725 33.8280706,21.8750241 C34.3593191,20.9375264 34.6249437,20.0469035 34.6249437,19.2031555 C34.6249437,17.6406595 34.2030697,16.4453498 33.3593217,15.6172266 C32.5155737,14.7891033 31.3124513,14.375042 29.7499553,14.375042 C28.8437077,14.375042 27.859335,14.7500411 26.7968373,15.5000393 C26.2343387,15.9375381 25.5312154,16.562537 24.6874674,17.3750349 L24.4999678,17.5625344 L24.3124683,17.3750349 C23.4999704,16.562537 22.7968471,15.9531635 22.2030983,15.5469142 C21.1406006,14.7656659 20.1562279,14.375042 19.2499803,14.375042 C17.6874843,14.375042 16.4843619,14.7891033 15.6406139,15.6172266 C14.7968659,16.4453498 14.374992,17.6406595 14.374992,19.2031555 C14.374992,20.0156533 14.6406166,20.8906515 15.1718651,21.8281493 C15.6406139,22.6718972 16.2187373,23.4218955 16.9062359,24.0781439 Z" id=""></path>
        </g>
    </g>
</svg>