<?xml version="1.0" encoding="UTF-8"?>
<svg width="48px" height="48px" viewBox="0 0 48 48" version="1.1" xmlns="http://www.w3.org/2000/svg" xmlns:xlink="http://www.w3.org/1999/xlink">
    <!-- Generator: Sketch 47.1 (45422) - http://www.bohemiancoding.com/sketch -->
    <title>Icon/MenuCart</title>
    <desc>Created with Sketch.</desc>
    <defs></defs>
    <g id="Symbols" stroke="none" stroke-width="1" fill="none" fill-rule="evenodd">
        <g id="Icon/MenuCart" fill="#FFFFFF">
            <path d="M34.8749383,14.0000429 C35.2186873,14.0000429 35.5077493,14.1406676 35.7421237,14.4219169 C35.9764982,14.7031662 36.0468105,15.0156657 35.9530607,15.3594147 L33.8436908,25.1093914 C33.7811912,25.3593906 33.6483785,25.5703276 33.4452542,25.7422024 C33.2421299,25.9140772 33.0155675,26.0000143 32.7655683,26.0000143 L18.0937283,26.0000143 L18.5624772,28.2500089 L31.7811957,28.2500089 C32.1249446,28.2500089 32.4140067,28.3906336 32.6483811,28.6718829 C32.8827556,28.9531323 32.9530679,29.2656318 32.8593181,29.6093807 L32.8124432,29.8437551 C33.4374415,30.437504 33.749941,31.156252 33.749941,32 C33.749941,32.843748 33.4608789,33.554684 32.8827556,34.1328074 C32.3046322,34.7109308 31.5936961,34.9999928 30.7499481,34.9999928 C29.9062002,34.9999928 29.1952641,34.7109308 28.6171407,34.1328074 C28.0390173,33.554684 27.7499553,32.843748 27.7499553,32 C27.7499553,31.4687515 27.89058,30.9687525 28.1718293,30.5000036 L21.3280956,30.5000036 C21.6093449,30.9687525 21.7499696,31.4687515 21.7499696,32 C21.7499696,32.843748 21.4609076,33.554684 20.8827842,34.1328074 C20.3046608,34.7109308 19.5937247,34.9999928 18.7499768,34.9999928 C17.9062288,34.9999928 17.1952927,34.7109308 16.6171693,34.1328074 C16.039046,33.554684 15.7499839,32.8515607 15.7499839,32.0234374 C15.7499839,31.1953142 16.0312332,30.5000036 16.5937319,29.9375049 L13.3124897,13.2500447 L9.56249866,13.2500447 C9.40624927,13.2500447 9.27343661,13.1953571 9.16406211,13.0859826 C9.05468761,12.9766081 9,12.8437954 9,12.687546 L9,11.5625487 C9,11.4062993 9.05468761,11.2734867 9.16406211,11.1641122 C9.27343661,11.0547377 9.40624927,11.0000501 9.56249866,11.0000501 L14.2499875,11.0000501 C14.5312368,11.0000501 14.773424,11.0859871 14.9765483,11.257862 C15.1796725,11.4297368 15.3124852,11.6406738 15.3749848,11.8906729 L15.7499839,14.0000429 L34.8749383,14.0000429 Z M18.7499768,33.1249973 C19.0624762,33.1249973 19.3281001,33.0156228 19.5468499,32.7968731 C19.7655996,32.5781234 19.8749741,32.3124995 19.8749741,32 C19.8749741,31.6875005 19.7655996,31.4218766 19.5468499,31.2031269 C19.3281001,30.9843772 19.0624762,30.8750027 18.7499768,30.8750027 C18.4374773,30.8750027 18.1718534,30.9843772 17.9531037,31.2031269 C17.7343539,31.4218766 17.6249794,31.6875005 17.6249794,32 C17.6249794,32.3124995 17.7343539,32.5781234 17.9531037,32.7968731 C18.1718534,33.0156228 18.4374773,33.1249973 18.7499768,33.1249973 Z M30.7499481,33.1249973 C31.0624476,33.1249973 31.3280715,33.0156228 31.5468212,32.7968731 C31.765571,32.5781234 31.8749455,32.3124995 31.8749455,32 C31.8749455,31.6875005 31.765571,31.4218766 31.5468212,31.2031269 C31.3280715,30.9843772 31.0624476,30.8750027 30.7499481,30.8750027 C30.4374487,30.8750027 30.1718248,30.9843772 29.953075,31.2031269 C29.7343253,31.4218766 29.6249508,31.6875005 29.6249508,32 C29.6249508,32.3124995 29.7343253,32.5781234 29.953075,32.7968731 C30.1718248,33.0156228 30.4374487,33.1249973 30.7499481,33.1249973 Z M31.8280706,23.7500197 L33.4686917,16.2500376 L16.2187328,16.2500376 L17.6718543,23.7500197 L31.8280706,23.7500197 Z" id="ïº"></path>
        </g>
    </g>
</svg>