<?xml version="1.0" encoding="UTF-8"?>
<svg width="48px" height="48px" viewBox="0 0 48 48" version="1.1" xmlns="http://www.w3.org/2000/svg" xmlns:xlink="http://www.w3.org/1999/xlink">
    <!-- Generator: Sketch 47.1 (45422) - http://www.bohemiancoding.com/sketch -->
    <title>Icon/User</title>
    <desc>Created with Sketch.</desc>
    <defs></defs>
    <g id="Symbols" stroke="none" stroke-width="1" fill="none" fill-rule="evenodd">
        <g id="Icon/User" fill="#FFFFFF">
            <path d="M30.7030804,24.5468427 C32.2030768,24.7343423 33.4608861,25.3905907 34.4765089,26.515588 C35.4921317,27.6405853 35.9999428,28.9687069 35.9999428,30.4999535 L35.9999428,31.8124504 C35.9999428,32.6874485 35.6874433,33.4374467 35.062445,34.062445 C34.4374467,34.6874433 33.7030733,34.9999428 32.8593253,34.9999428 L15.1874924,34.9999428 C14.3124942,34.9999428 13.562496,34.6874433 12.9374978,34.062445 C12.3124995,33.4374467 12,32.6874485 12,31.8124504 L12,30.4999535 C12,28.9687069 12.5078111,27.6405853 13.5234339,26.515588 C14.5390567,25.3905907 15.7968659,24.7343423 17.2968624,24.5468427 C16.1406149,23.0468463 15.5624915,21.3437256 15.5624915,19.4374799 C15.5624915,17.9062333 15.9374906,16.4921746 16.6874888,15.1953025 C17.437487,13.8984304 18.4609219,12.8749955 19.757794,12.1249973 C21.0546662,11.3749991 22.4687248,11 23.9999714,11 C25.531218,11 26.9452766,11.3749991 28.2421488,12.1249973 C29.5390209,12.8749955 30.5624557,13.8984304 31.312454,15.1953025 C32.0624522,16.4921746 32.4374513,17.9062333 32.4374513,19.4374799 C32.4374513,21.3437256 31.8593279,23.0468463 30.7030804,24.5468427 Z M23.9999714,13.2499946 C22.8749741,13.2499946 21.8437265,13.531244 20.9062288,14.0937426 C19.968731,14.6562413 19.2187328,15.4062395 18.6562341,16.3437373 C18.0937355,17.281235 17.8124861,18.3124826 17.8124861,19.4374799 C17.8124861,20.5624772 18.0937355,21.5937247 18.6562341,22.5312225 C19.2187328,23.4687203 19.968731,24.2187185 20.9062288,24.7812171 C21.8437265,25.3437158 22.8749741,25.6249651 23.9999714,25.6249651 C25.1249687,25.6249651 26.1562162,25.3437158 27.093714,24.7812171 C28.0312118,24.2187185 28.78121,23.4687203 29.3437086,22.5312225 C29.9062073,21.5937247 30.1874566,20.5624772 30.1874566,19.4374799 C30.1874566,18.3124826 29.9062073,17.281235 29.3437086,16.3437373 C28.78121,15.4062395 28.0312118,14.6562413 27.093714,14.0937426 C26.1562162,13.531244 25.1249687,13.2499946 23.9999714,13.2499946 Z M33.7499481,31.8124504 L33.7499481,30.4999535 C33.7499481,29.468706 33.3827618,28.5858958 32.6483883,27.8515223 C31.9140148,27.1171488 31.0312046,26.7499624 29.9999571,26.7499624 L28.2187113,26.7499624 C26.9062145,27.4999607 25.4999678,27.8749598 23.9999714,27.8749598 C22.499975,27.8749598 21.0937283,27.4999607 19.7812314,26.7499624 L17.9999857,26.7499624 C16.9687382,26.7499624 16.085928,27.1171488 15.3515545,27.8515223 C14.617181,28.5858958 14.2499946,29.468706 14.2499946,30.4999535 L14.2499946,31.8593253 C14.2499946,32.1093244 14.3359317,32.3202614 14.5078065,32.4921363 C14.6796813,32.6640111 14.9062431,32.7499481 15.1874924,32.7499481 L32.8593253,32.7499481 C33.1093244,32.7499481 33.3202614,32.6640111 33.4921363,32.4921363 C33.6640111,32.3202614 33.7499481,32.0936997 33.7499481,31.8124504 Z" id=""></path>
        </g>
    </g>
</svg>